<?xml version="1.0" encoding="UTF-8" standalone="no"?><svg xmlns="http://www.w3.org/2000/svg" xmlns:xlink="http://www.w3.org/1999/xlink" contentStyleType="text/css" height="1023px" preserveAspectRatio="none" style="width:957px;height:1023px;background:#FFFFFF;" version="1.1" viewBox="0 0 957 1023" width="957px" zoomAndPan="magnify"><defs/><g><!--MD5=[6530bfc01d429f58dc478a3f28c2e59a]
cluster web server 127.0.0.1:8182--><g id="cluster_web server 127.0.0.1:8182"><path d="M8.5,6 L222.5,6 A3.75,3.75 0 0 1 225,8.5 L232,28.2969 L947.5,28.2969 A2.5,2.5 0 0 1 950,30.7969 L950,546.5 A2.5,2.5 0 0 1 947.5,549 L8.5,549 A2.5,2.5 0 0 1 6,546.5 L6,8.5 A2.5,2.5 0 0 1 8.5,6 " style="stroke:#000000;stroke-width:1.5;fill:none;"/><line style="stroke:#000000;stroke-width:1.5;fill:none;" x1="6" x2="232" y1="28.2969" y2="28.2969"/><text fill="#000000" font-family="sans-serif" font-size="14" font-weight="bold" lengthAdjust="spacing" textLength="213" x="10" y="20.9951">web server 127.0.0.1:8182</text></g><!--MD5=[a62bdaff794f25195c8bf382519636cd]
cluster methods--><g id="cluster_methods"><path d="M463.5,582 L535.5,582 A3.75,3.75 0 0 1 538,584.5 L545,604.2969 L805.5,604.2969 A2.5,2.5 0 0 1 808,606.7969 L808,676.5 A2.5,2.5 0 0 1 805.5,679 L463.5,679 A2.5,2.5 0 0 1 461,676.5 L461,584.5 A2.5,2.5 0 0 1 463.5,582 " style="stroke:#000000;stroke-width:1.5;fill:none;"/><line style="stroke:#000000;stroke-width:1.5;fill:none;" x1="461" x2="545" y1="604.2969" y2="604.2969"/><text fill="#000000" font-family="sans-serif" font-size="14" font-weight="bold" lengthAdjust="spacing" textLength="71" x="465" y="596.9951">methods</text></g><!--MD5=[b6b25809a056dc691a7e37a9ce8af642]
cluster data_storage--><g id="cluster_data_storage"><path d="M25.5,712 L134.5,712 A3.75,3.75 0 0 1 137,714.5 L144,734.2969 L608.5,734.2969 A2.5,2.5 0 0 1 611,736.7969 L611,1013.5 A2.5,2.5 0 0 1 608.5,1016 L25.5,1016 A2.5,2.5 0 0 1 23,1013.5 L23,714.5 A2.5,2.5 0 0 1 25.5,712 " style="stroke:#000000;stroke-width:1.5;fill:none;"/><line style="stroke:#000000;stroke-width:1.5;fill:none;" x1="23" x2="144" y1="734.2969" y2="734.2969"/><text fill="#000000" font-family="sans-serif" font-size="14" font-weight="bold" lengthAdjust="spacing" textLength="108" x="27" y="726.9951">data_storage</text></g><!--MD5=[897c727fee9ca4052cc1ca7116f14038]
entity cargo_crev_reviews.rs--><g id="elem_cargo_crev_reviews.rs"><rect fill="#F1F1F1" height="46.2969" rx="2.5" ry="2.5" style="stroke:#181818;stroke-width:0.5;" width="197" x="389.5" y="45.5"/><rect fill="#F1F1F1" height="10" style="stroke:#181818;stroke-width:0.5;" width="15" x="566.5" y="50.5"/><rect fill="#F1F1F1" height="2" style="stroke:#181818;stroke-width:0.5;" width="4" x="564.5" y="52.5"/><rect fill="#F1F1F1" height="2" style="stroke:#181818;stroke-width:0.5;" width="4" x="564.5" y="56.5"/><text fill="#000000" font-family="sans-serif" font-size="14" lengthAdjust="spacing" textLength="157" x="404.5" y="78.4951">cargo_crev_reviews.rs</text></g><!--MD5=[4b090e61ba0936deb0131d542ad880f6]
entity lib.rs--><g id="elem_lib.rs"><rect fill="#F1F1F1" height="46.2969" rx="2.5" ry="2.5" style="stroke:#181818;stroke-width:0.5;" width="76" x="450" y="157"/><rect fill="#F1F1F1" height="10" style="stroke:#181818;stroke-width:0.5;" width="15" x="506" y="162"/><rect fill="#F1F1F1" height="2" style="stroke:#181818;stroke-width:0.5;" width="4" x="504" y="164"/><rect fill="#F1F1F1" height="2" style="stroke:#181818;stroke-width:0.5;" width="4" x="504" y="168"/><text fill="#000000" font-family="sans-serif" font-size="14" lengthAdjust="spacing" textLength="36" x="465" y="189.9951">lib.rs</text></g><g id="elem_GMN4608969"><path d="M117.5,41 L117.5,96.3984 A0,0 0 0 0 117.5,96.3984 L354.5,96.3984 A0,0 0 0 0 354.5,96.3984 L354.5,72.5 L389.265,68.5 L354.5,64.5 L354.5,51 L344.5,41 L117.5,41 A0,0 0 0 0 117.5,41 " fill="#FEFFDD" style="stroke:#181818;stroke-width:0.5;"/><path d="M344.5,41 L344.5,51 L354.5,51 L344.5,41 " fill="#FEFFDD" style="stroke:#181818;stroke-width:0.5;"/><text fill="#000000" font-family="sans-serif" font-size="13" lengthAdjust="spacing" textLength="114" x="123.5" y="58.0669">input passphrase,</text><text fill="#000000" font-family="sans-serif" font-size="13" lengthAdjust="spacing" textLength="216" x="123.5" y="73.1997">start TcpListener and web server,</text><text fill="#000000" font-family="sans-serif" font-size="13" lengthAdjust="spacing" textLength="88" x="123.5" y="88.3325">open browser</text></g><!--MD5=[1d9999a5f8663ee60bca9af6da07ca8e]
entity response_get_mod--><g id="elem_response_get_mod"><rect fill="#F1F1F1" height="46.2969" rx="2.5" ry="2.5" style="stroke:#181818;stroke-width:0.5;" width="177" x="289.5" y="264"/><rect fill="#F1F1F1" height="10" style="stroke:#181818;stroke-width:0.5;" width="15" x="446.5" y="269"/><rect fill="#F1F1F1" height="2" style="stroke:#181818;stroke-width:0.5;" width="4" x="444.5" y="271"/><rect fill="#F1F1F1" height="2" style="stroke:#181818;stroke-width:0.5;" width="4" x="444.5" y="275"/><text fill="#000000" font-family="sans-serif" font-size="14" lengthAdjust="spacing" textLength="137" x="304.5" y="296.9951">response_get_mod</text></g><!--MD5=[684ef4615df04c4cbe7194b2c131dae5]
entity response_post_mod--><g id="elem_response_post_mod"><rect fill="#F1F1F1" height="46.2969" rx="2.5" ry="2.5" style="stroke:#181818;stroke-width:0.5;" width="185" x="516.5" y="264"/><rect fill="#F1F1F1" height="10" style="stroke:#181818;stroke-width:0.5;" width="15" x="681.5" y="269"/><rect fill="#F1F1F1" height="2" style="stroke:#181818;stroke-width:0.5;" width="4" x="679.5" y="271"/><rect fill="#F1F1F1" height="2" style="stroke:#181818;stroke-width:0.5;" width="4" x="679.5" y="275"/><text fill="#000000" font-family="sans-serif" font-size="14" lengthAdjust="spacing" textLength="145" x="531.5" y="296.9951">response_post_mod</text></g><!--MD5=[24e45df2a859eeeb6c96099933c96752]
entity auto_generated_mod--><g id="elem_auto_generated_mod"><rect fill="#F1F1F1" height="46.2969" rx="2.5" ry="2.5" style="stroke:#181818;stroke-width:0.5;" width="193" x="518.5" y="375.5"/><rect fill="#F1F1F1" height="10" style="stroke:#181818;stroke-width:0.5;" width="15" x="691.5" y="380.5"/><rect fill="#F1F1F1" height="2" style="stroke:#181818;stroke-width:0.5;" width="4" x="689.5" y="382.5"/><rect fill="#F1F1F1" height="2" style="stroke:#181818;stroke-width:0.5;" width="4" x="689.5" y="386.5"/><text fill="#000000" font-family="sans-serif" font-size="14" lengthAdjust="spacing" textLength="153" x="533.5" y="408.4951">auto_generated_mod</text></g><g id="elem_GMN4608978"><path d="M746.5,371 L746.5,394.5 L711.68,398.5 L746.5,402.5 L746.5,426.3984 A0,0 0 0 0 746.5,426.3984 L933.5,426.3984 A0,0 0 0 0 933.5,426.3984 L933.5,381 L923.5,371 L746.5,371 A0,0 0 0 0 746.5,371 " fill="#FEFFDD" style="stroke:#181818;stroke-width:0.5;"/><path d="M923.5,371 L923.5,381 L933.5,381 L923.5,371 " fill="#FEFFDD" style="stroke:#181818;stroke-width:0.5;"/><text fill="#000000" font-family="sans-serif" font-size="13" lengthAdjust="spacing" textLength="166" x="752.5" y="388.0669">autogenerated boilerplate</text><text fill="#000000" font-family="sans-serif" font-size="13" lengthAdjust="spacing" textLength="141" x="752.5" y="403.1997">matching and routing,</text><text fill="#000000" font-family="sans-serif" font-size="13" lengthAdjust="spacing" textLength="138" x="752.5" y="418.3325">client proxy functions</text></g><!--MD5=[2b42c4aaf4f4259ade9984ea7d1f812e]
entity common_structs_mod--><g id="elem_common_structs_mod"><rect fill="#F1F1F1" height="46.2969" rx="2.5" ry="2.5" style="stroke:#181818;stroke-width:0.5;" width="199" x="463.5" y="487"/><rect fill="#F1F1F1" height="10" style="stroke:#181818;stroke-width:0.5;" width="15" x="642.5" y="492"/><rect fill="#F1F1F1" height="2" style="stroke:#181818;stroke-width:0.5;" width="4" x="640.5" y="494"/><rect fill="#F1F1F1" height="2" style="stroke:#181818;stroke-width:0.5;" width="4" x="640.5" y="498"/><text fill="#000000" font-family="sans-serif" font-size="14" lengthAdjust="spacing" textLength="159" x="478.5" y="519.9951">common_structs_mod</text></g><g id="elem_GMN4608983"><path d="M698,497.5 L698,506 L662.816,510 L698,514 L698,522.6328 A0,0 0 0 0 698,522.6328 L934,522.6328 A0,0 0 0 0 934,522.6328 L934,507.5 L924,497.5 L698,497.5 A0,0 0 0 0 698,497.5 " fill="#FEFFDD" style="stroke:#181818;stroke-width:0.5;"/><path d="M924,497.5 L924,507.5 L934,507.5 L924,497.5 " fill="#FEFFDD" style="stroke:#181818;stroke-width:0.5;"/><text fill="#000000" font-family="sans-serif" font-size="13" lengthAdjust="spacing" textLength="215" x="704" y="514.5669">shared between server and client</text></g><!--MD5=[13bbf32ffc354cdc40e593ae730d780e]
entity auto_generated_files_mod--><g id="elem_auto_generated_files_mod"><rect fill="#F1F1F1" height="46.2969" rx="2.5" ry="2.5" style="stroke:#181818;stroke-width:0.5;" width="230" x="253" y="375.5"/><rect fill="#F1F1F1" height="10" style="stroke:#181818;stroke-width:0.5;" width="15" x="463" y="380.5"/><rect fill="#F1F1F1" height="2" style="stroke:#181818;stroke-width:0.5;" width="4" x="461" y="382.5"/><rect fill="#F1F1F1" height="2" style="stroke:#181818;stroke-width:0.5;" width="4" x="461" y="386.5"/><text fill="#000000" font-family="sans-serif" font-size="14" lengthAdjust="spacing" textLength="190" x="268" y="408.4951">auto_generated_files_mod</text></g><g id="elem_GMN4608988"><path d="M22.5,386 L22.5,411.1328 A0,0 0 0 0 22.5,411.1328 L217.5,411.1328 A0,0 0 0 0 217.5,411.1328 L217.5,404 L252.743,398.5 L217.5,396 L217.5,396 L207.5,386 L22.5,386 A0,0 0 0 0 22.5,386 " fill="#FEFFDD" style="stroke:#181818;stroke-width:0.5;"/><path d="M207.5,386 L207.5,396 L217.5,396 L207.5,386 " fill="#FEFFDD" style="stroke:#181818;stroke-width:0.5;"/><text fill="#000000" font-family="sans-serif" font-size="13" lengthAdjust="spacing" textLength="174" x="28.5" y="403.0669">files are embedded in code</text></g><!--MD5=[bc53866f4d278ef9515b289e177e60fe]
entity srv_methods_mod--><g id="elem_srv_methods_mod"><rect fill="#F1F1F1" height="46.2969" rx="2.5" ry="2.5" style="stroke:#181818;stroke-width:0.5;" width="171" x="477.5" y="617"/><rect fill="#F1F1F1" height="10" style="stroke:#181818;stroke-width:0.5;" width="15" x="628.5" y="622"/><rect fill="#F1F1F1" height="2" style="stroke:#181818;stroke-width:0.5;" width="4" x="626.5" y="624"/><rect fill="#F1F1F1" height="2" style="stroke:#181818;stroke-width:0.5;" width="4" x="626.5" y="628"/><text fill="#000000" font-family="sans-serif" font-size="14" lengthAdjust="spacing" textLength="131" x="492.5" y="649.9951">srv_methods_mod</text></g><g id="elem_GMN4608994"><path d="M684,627.5 L684,636 L648.791,640 L684,644 L684,652.6328 A0,0 0 0 0 684,652.6328 L792,652.6328 A0,0 0 0 0 792,652.6328 L792,637.5 L782,627.5 L684,627.5 A0,0 0 0 0 684,627.5 " fill="#FEFFDD" style="stroke:#181818;stroke-width:0.5;"/><path d="M782,627.5 L782,637.5 L792,637.5 L782,627.5 " fill="#FEFFDD" style="stroke:#181818;stroke-width:0.5;"/><text fill="#000000" font-family="sans-serif" font-size="13" lengthAdjust="spacing" textLength="87" x="690" y="644.5669">API endpoints</text></g><!--MD5=[8bb737c08d96f9e26ea981a8c2359f3d]
entity db_sled_mod--><g id="elem_db_sled_mod"><rect fill="#F1F1F1" height="46.2969" rx="2.5" ry="2.5" style="stroke:#181818;stroke-width:0.5;" width="134" x="412" y="747"/><rect fill="#F1F1F1" height="10" style="stroke:#181818;stroke-width:0.5;" width="15" x="526" y="752"/><rect fill="#F1F1F1" height="2" style="stroke:#181818;stroke-width:0.5;" width="4" x="524" y="754"/><rect fill="#F1F1F1" height="2" style="stroke:#181818;stroke-width:0.5;" width="4" x="524" y="758"/><text fill="#000000" font-family="sans-serif" font-size="14" lengthAdjust="spacing" textLength="94" x="427" y="779.9951">db_sled_mod</text></g><g id="elem_GMN4609000"><path d="M39,750 L39,790.2656 A0,0 0 0 0 39,790.2656 L377,790.2656 A0,0 0 0 0 377,790.2656 L377,774 L411.737,770 L377,766 L377,760 L367,750 L39,750 A0,0 0 0 0 39,750 " fill="#FEFFDD" style="stroke:#181818;stroke-width:0.5;"/><path d="M367,750 L367,760 L377,760 L367,750 " fill="#FEFFDD" style="stroke:#181818;stroke-width:0.5;"/><text fill="#000000" font-family="sans-serif" font-size="13" lengthAdjust="spacing" textLength="243" x="45" y="767.0669">trees: crates, version, yanked, review</text><text fill="#000000" font-family="sans-serif" font-size="13" lengthAdjust="spacing" textLength="317" x="45" y="782.1997">stored in ~/.config/crev/cargo_crev_reviews_data</text></g><!--MD5=[76f46b3256b4f79e506f7ca992800b67]
entity crev_mod--><g id="elem_crev_mod"><rect fill="#F1F1F1" height="46.2969" rx="2.5" ry="2.5" style="stroke:#181818;stroke-width:0.5;" width="110" x="464" y="854"/><rect fill="#F1F1F1" height="10" style="stroke:#181818;stroke-width:0.5;" width="15" x="554" y="859"/><rect fill="#F1F1F1" height="2" style="stroke:#181818;stroke-width:0.5;" width="4" x="552" y="861"/><rect fill="#F1F1F1" height="2" style="stroke:#181818;stroke-width:0.5;" width="4" x="552" y="865"/><text fill="#000000" font-family="sans-serif" font-size="14" lengthAdjust="spacing" textLength="70" x="479" y="886.9951">crev_mod</text></g><!--MD5=[25bf0de725862f6e3255e0b1afb00efd]
entity cargo_registry_mod--><g id="elem_cargo_registry_mod"><rect fill="#F1F1F1" height="46.2969" rx="2.5" ry="2.5" style="stroke:#181818;stroke-width:0.5;" width="182" x="47" y="854"/><rect fill="#F1F1F1" height="10" style="stroke:#181818;stroke-width:0.5;" width="15" x="209" y="859"/><rect fill="#F1F1F1" height="2" style="stroke:#181818;stroke-width:0.5;" width="4" x="207" y="861"/><rect fill="#F1F1F1" height="2" style="stroke:#181818;stroke-width:0.5;" width="4" x="207" y="865"/><text fill="#000000" font-family="sans-serif" font-size="14" lengthAdjust="spacing" textLength="142" x="62" y="886.9951">cargo_registry_mod</text></g><!--MD5=[1374f13bc9f284a5f53222bbb106979b]
entity crates_io_mod--><g id="elem_crates_io_mod"><rect fill="#F1F1F1" height="46.2969" rx="2.5" ry="2.5" style="stroke:#181818;stroke-width:0.5;" width="144" x="278" y="854"/><rect fill="#F1F1F1" height="10" style="stroke:#181818;stroke-width:0.5;" width="15" x="402" y="859"/><rect fill="#F1F1F1" height="2" style="stroke:#181818;stroke-width:0.5;" width="4" x="400" y="861"/><rect fill="#F1F1F1" height="2" style="stroke:#181818;stroke-width:0.5;" width="4" x="400" y="865"/><text fill="#000000" font-family="sans-serif" font-size="14" lengthAdjust="spacing" textLength="104" x="293" y="886.9951">crates_io_mod</text></g><g id="elem_\~/.config/crev/"><ellipse cx="518.8844" cy="980.4769" fill="#F1F1F1" rx="75.3844" ry="17.4769" style="stroke:#181818;stroke-width:0.5;"/><text fill="#000000" font-family="sans-serif" font-size="14" lengthAdjust="spacing" textLength="107" x="462.3844" y="984.2244">~/.config/crev/</text></g><g id="elem_\~/.cargo/registry"><ellipse cx="120.9455" cy="980.6891" fill="#F1F1F1" rx="81.4455" ry="18.6891" style="stroke:#181818;stroke-width:0.5;"/><text fill="#000000" font-family="sans-serif" font-size="14" lengthAdjust="spacing" textLength="122" x="58.8109" y="983.909">~/.cargo/registry</text></g><g id="elem_⛅/crates.io/api/v1"><ellipse cx="322.7932" cy="980.4586" fill="#F1F1F1" rx="85.2932" ry="19.4586" style="stroke:#181818;stroke-width:0.5;"/><text fill="#000000" font-family="sans-serif" font-size="14" lengthAdjust="spacing" textLength="131" x="257.2932" y="983.3053">⛅/crates.io/api/v1</text></g><!--MD5=[c309d6cc65f5ea09984316b13d960522]
link cargo_crev_reviews.rs to lib.rs--><g id="link_cargo_crev_reviews.rs_lib.rs"><path d="M488,91.659 C488,110.657 488,137.886 488,156.874 " fill="none" id="cargo_crev_reviews.rs-lib.rs" style="stroke:#181818;stroke-width:1.0;"/></g><!--MD5=[4fdeafe6a48c2a274b685a3f4072e795]
link lib.rs to response_get_mod--><g id="link_lib.rs_response_get_mod"><path d="M464.94,203.011 C446.293,220.812 420.148,245.767 401.408,263.656 " fill="none" id="lib.rs-response_get_mod" style="stroke:#181818;stroke-width:1.0;"/></g><!--MD5=[358347c3b8e58f91157dbc9e60becf19]
link lib.rs to response_post_mod--><g id="link_lib.rs_response_post_mod"><path d="M513.366,203.011 C533.878,220.812 562.637,245.767 583.251,263.656 " fill="none" id="lib.rs-response_post_mod" style="stroke:#181818;stroke-width:1.0;"/></g><!--MD5=[a43cfff14d72adc51a7ddce754812b7e]
link response_post_mod to auto_generated_mod--><g id="link_response_post_mod_auto_generated_mod"><path d="M610.214,310.159 C611.255,329.157 612.747,356.386 613.788,375.374 " fill="none" id="response_post_mod-auto_generated_mod" style="stroke:#181818;stroke-width:1.0;"/></g><!--MD5=[3ca60ae8b4fe2e8cdc1e0547f91a9ecb]
link auto_generated_mod to common_structs_mod--><g id="link_auto_generated_mod_common_structs_mod"><path d="M604.477,421.659 C595.455,440.657 582.525,467.886 573.507,486.874 " fill="none" id="auto_generated_mod-common_structs_mod" style="stroke:#181818;stroke-width:1.0;"/></g><!--MD5=[2e139ac7a45808454459a469350cd3fc]
link response_get_mod to auto_generated_files_mod--><g id="link_response_get_mod_auto_generated_files_mod"><path d="M375.976,310.159 C374.241,329.157 371.755,356.386 370.021,375.374 " fill="none" id="response_get_mod-auto_generated_files_mod" style="stroke:#181818;stroke-width:1.0;"/></g><!--MD5=[ac4f76ca6bb4518613c502898f2c87a9]
link common_structs_mod to srv_methods_mod--><g id="link_common_structs_mod_srv_methods_mod"><path d="M563,533.004 C563,556.449 563,593.356 563,616.855 " fill="none" id="common_structs_mod-srv_methods_mod" style="stroke:#181818;stroke-width:1.0;"/></g><!--MD5=[f9c51f2ae471f9512a8ef5788f1d1204]
reverse link srv_methods_mod to db_sled_mod--><g id="link_srv_methods_mod_db_sled_mod"><path d="M545.768,667.258 C530.366,690.728 508.05,724.733 493.533,746.855 " fill="none" id="srv_methods_mod-backto-db_sled_mod" style="stroke:#181818;stroke-width:1.0;"/><polygon fill="#181818" points="548.56,663.004,540.279,668.3355,545.8176,667.1848,546.9682,672.7234,548.56,663.004" style="stroke:#181818;stroke-width:1.0;"/></g><!--MD5=[9ef179790fe69dc83566e63a3c96c2ba]
link srv_methods_mod to crev_mod--><g id="link_srv_methods_mod_crev_mod"><path d="M566.577,663.065 C570.664,693.019 575.419,747.98 564,793 C558.88,813.187 547.758,833.78 537.852,849.405 " fill="none" id="srv_methods_mod-to-crev_mod" style="stroke:#181818;stroke-width:1.0;"/><polygon fill="#181818" points="535.097,853.675,543.3381,848.282,537.8082,849.4739,536.6163,843.944,535.097,853.675" style="stroke:#181818;stroke-width:1.0;"/><text fill="#000000" font-family="sans-serif" font-size="13" lengthAdjust="spacing" textLength="78" x="572" y="774.5669">save review</text></g><!--MD5=[7933b21e1869c7de63262cec80348e30]
reverse link db_sled_mod to crev_mod--><g id="link_db_sled_mod_crev_mod"><path d="M489.19,797.75 C495.78,815.049 504.259,837.305 510.488,853.656 " fill="none" id="db_sled_mod-backto-crev_mod" style="stroke:#181818;stroke-width:1.0;"/><polygon fill="#181818" points="487.385,793.011,486.8508,802.8454,489.1649,797.6835,494.3267,799.9976,487.385,793.011" style="stroke:#181818;stroke-width:1.0;"/></g><!--MD5=[521f5c8872ab24b4eb710fb37c09a36f]
reverse link db_sled_mod to cargo_registry_mod--><g id="link_db_sled_mod_cargo_registry_mod"><path d="M406.788,793.235 C348.721,811.115 267.557,836.107 209.642,853.94 " fill="none" id="db_sled_mod-backto-cargo_registry_mod" style="stroke:#181818;stroke-width:1.0;"/><polygon fill="#181818" points="411.629,791.745,401.8504,790.5707,406.8504,793.2164,404.2047,798.2164,411.629,791.745" style="stroke:#181818;stroke-width:1.0;"/></g><!--MD5=[48f90b7140ccc24e456019866c9aee2a]
reverse link db_sled_mod to crates_io_mod--><g id="link_db_sled_mod_crates_io_mod"><path d="M448.026,796.211 C426.526,813.712 398.141,836.816 377.451,853.656 " fill="none" id="db_sled_mod-backto-crates_io_mod" style="stroke:#181818;stroke-width:1.0;"/><polygon fill="#181818" points="451.957,793.011,442.4518,795.59,448.0791,796.1673,447.5019,801.7946,451.957,793.011" style="stroke:#181818;stroke-width:1.0;"/></g><!--MD5=[dfef5e404a9fd1588842aada8fa1cbb5]
link crev_mod to \~/.config/crev/--><g id="link_crev_mod_\~/.config/crev/"><path d="M519,905.059 C519,921.583 519,942.4281 519,957.8541 " fill="none" id="crev_mod-\~/.config/crev/" style="stroke:#181818;stroke-width:1.0;"/><polygon fill="#181818" points="519,962.8636,523,953.8636,519,957.8636,515,953.8636,519,962.8636" style="stroke:#181818;stroke-width:1.0;"/><polygon fill="#181818" points="519,900.024,515,909.024,519,905.024,523,909.024,519,900.024" style="stroke:#181818;stroke-width:1.0;"/></g><!--MD5=[eebe115c1f1f9b30b4031ec31360b48e]
reverse link cargo_registry_mod to \~/.cargo/registry--><g id="link_cargo_registry_mod_\~/.cargo/registry"><path d="M133.484,904.962 C130.464,922.996 126.576,946.2084 123.948,961.9016 " fill="none" id="cargo_registry_mod-backto-\~/.cargo/registry" style="stroke:#181818;stroke-width:1.0;"/><polygon fill="#181818" points="134.311,900.024,128.8797,908.2399,133.4853,904.9554,136.7698,909.561,134.311,900.024" style="stroke:#181818;stroke-width:1.0;"/></g><!--MD5=[401a6a3de856bab577f610288d704c6c]
reverse link crates_io_mod to ⛅/crates.io/api/v1--><g id="link_crates_io_mod_⛅/crates.io/api/v1"><path d="M342.853,904.867 C338.151,922.542 332.118,945.2239 327.942,960.9202 " fill="none" id="crates_io_mod-backto-⛅/crates.io/api/v1" style="stroke:#181818;stroke-width:1.0;"/><polygon fill="#181818" points="344.141,900.024,337.961,907.6926,342.8552,904.8558,345.692,909.75,344.141,900.024" style="stroke:#181818;stroke-width:1.0;"/></g><!--MD5=[57a82e75815bc9b5cc7989d3048328f6]
@startuml
package "web server 127.0.0.1:8182" {

  [cargo_crev_reviews.rs] -down- [lib.rs]
note left of cargo_crev_reviews.rs
input passphrase,
start TcpListener and web server,
open browser
end note
  [lib.rs] -down- [response_get_mod]
  [lib.rs] -down- [response_post_mod]
  [response_post_mod] -down- [auto_generated_mod]
note right
autogenerated boilerplate
matching and routing, 
client proxy functions
end note
  [auto_generated_mod] -down- [common_structs_mod]
    note right: shared between server and client
  [response_get_mod] -down- [auto_generated_files_mod]
    note left: files are embedded in code
}
package "methods" {
  [common_structs_mod] -down- [srv_methods_mod]
    note right: API endpoints

}
package "data_storage" {
  [srv_methods_mod] <-down- [db_sled_mod]
  note left 
  trees: crates, version, yanked, review 
  stored in \~/.config/crev/cargo_crev_reviews_data
  end note
  [srv_methods_mod] -down-> [crev_mod] : save review
  [db_sled_mod] <-down- [crev_mod]
  [db_sled_mod] <-down- [cargo_registry_mod]
  [db_sled_mod] <-down- [crates_io_mod]
  [crev_mod] <-down-> (\~/.config/crev/)
  [cargo_registry_mod] <-down- (\~/.cargo/registry)
  [crates_io_mod] <-down- (⛅/crates.io/api/v1)
}
@enduml

PlantUML version 1.2022.5(Sat Apr 30 10:55:52 UTC 2022)
(GPL source distribution)
Java Runtime: Java(TM) SE Runtime Environment
JVM: Java HotSpot(TM) 64-Bit Server VM
Default Encoding: UTF-8
Language: en
Country: US
--></g></svg>